<?xml version="1.0" encoding="UTF-8" standalone="no"?>
<svg
   height="295.35248"
   width="300"
   style="overflow:visible"
   version="1.1"
   id="svg3"
   sodipodi:docname="malcolmLogo.svg"
   xmlns:inkscape="http://www.inkscape.org/namespaces/inkscape"
   xmlns:sodipodi="http://sodipodi.sourceforge.net/DTD/sodipodi-0.dtd"
   xmlns="http://www.w3.org/2000/svg"
   xmlns:svg="http://www.w3.org/2000/svg">
  <sodipodi:namedview
     id="namedview3"
     pagecolor="#ffffff"
     bordercolor="#000000"
     borderopacity="0.25"
     inkscape:showpageshadow="2"
     inkscape:pageopacity="0.0"
     inkscape:pagecheckerboard="0"
     inkscape:deskcolor="#d1d1d1"
     inkscape:zoom="0.79904527"
     inkscape:cx="149.55348"
     inkscape:cy="147.67624"
     inkscape:window-width="1328"
     inkscape:window-height="593"
     inkscape:window-x="0"
     inkscape:window-y="612"
     inkscape:window-maximized="0"
     inkscape:current-layer="svg3" />
  <defs
     id="SvgjsDefs1001" />
  <g
     id="SvgjsG1007"
     featurekey="symbolFeature-0"
     transform="matrix(1.3333333,0,0,1.3333333,83.333333,-6.6666667)"
     fill="#5E5C7F">
    <path
       d="M 87.177,5 H 12.823 C 8.52,5 5,8.52 5,12.823 V 87.176 C 5,91.479 8.52,95 12.823,95 H 87.176 C 91.48,95 95,91.479 95,87.176 V 12.823 C 95,8.52 91.48,5 87.177,5 Z M 7.608,12.823 c 0,-2.869 2.347,-5.216 5.216,-5.216 H 48.696 V 37.702 H 39.642 L 27.312,25.372 H 7.608 Z M 59.69,40.31 V 59.69 H 40.31 V 40.31 Z M 7.608,27.98 h 18.623 l 11.472,11.471 v 9.245 H 7.608 Z m 0,23.324 h 30.095 v 9.245 L 26.231,72.02 H 7.608 Z M 48.696,92.392 H 12.823 c -2.869,0 -5.216,-2.347 -5.216,-5.216 V 74.628 h 19.704 l 12.33,-12.33 h 9.054 v 30.094 z m 43.696,-5.216 c 0,2.869 -2.347,5.216 -5.216,5.216 H 51.304 V 62.298 h 9.055 l 12.33,12.33 h 19.704 v 12.548 z m 0,-15.156 H 73.769 L 62.297,60.549 v -9.245 h 30.095 z m 0,-23.324 H 62.297 V 39.451 L 73.769,27.98 h 18.623 z m 0,-23.324 H 72.689 l -12.33,12.33 H 51.304 V 7.608 h 35.873 c 2.869,0 5.216,2.347 5.216,5.216 v 12.548 z"
       id="path1" />
  </g>
  <g
     id="SvgjsG1008"
     featurekey="nameFeature-0"
     transform="matrix(3.3482143,0,0,3.3482143,-4.0178566,114.55357)"
     fill="#111111">
    <path
       d="m 1.2,30.24 h 4.04 c 0.08,5.16 0.48,6.16 1.92,6.16 1.96,0 1.96,-1.64 1.96,-6 0,-6.4 -7.92,-4.68 -7.92,-13.2 0,-5 0,-9.6 6,-9.6 4.44,0 5.64,2.52 5.92,8.56 h -4 C 8.96,11.8 8.48,10.8 7.2,10.8 c -1.96,0 -1.96,2.16 -1.96,6.4 0,6.2 7.96,4 7.96,13.2 0,5.6 0,10 -6.04,10 C 2.52,40.4 1.44,37.64 1.2,30.24 Z M 16.4,40 V 8 h 4 v 32 z m 8,0 V 8 H 28 l 4.2,20 h 0.4 L 36.8,8 h 3.6 v 32 h -4 V 24 l -2.84,16 h -2.4 L 28.4,24 v 16 z m 19.2,-9.76 h 4.04 c 0.08,5.16 0.48,6.16 1.92,6.16 1.96,0 1.96,-1.64 1.96,-6 0,-6.4 -7.92,-4.68 -7.92,-13.2 0,-5 0,-9.6 6,-9.6 4.44,0 5.64,2.52 5.92,8.56 h -4 C 51.36,11.8 50.88,10.8 49.6,10.8 c -1.96,0 -1.96,2.16 -1.96,6.4 0,6.2 7.96,4 7.96,13.2 0,5.6 0,10 -6.04,10 -4.64,0 -5.72,-2.76 -5.96,-10.16 z M 58.8,40 V 23.2 c 0,-11.16 0,-15.56 6,-15.56 6,0 6,4.4 6,15.56 V 40 h -4 v -9.2 h -4 V 40 Z m 4,-12.4 h 4 v -4.4 c 0,-10.4 0,-12.36 -2,-12.36 -2,0 -2,1.96 -2,12.36 z M 74.8,40 V 8 h 3.6 l 4.2,20 H 83 L 87.2,8 h 3.6 v 32 h -4 V 24 l -2.84,16 h -2.4 L 78.8,24 v 16 z"
       id="path2" />
  </g>
  <g
     id="SvgjsG1009"
     featurekey="sloganFeature-0"
     transform="matrix(1.6658026,0,0,1.6658026,28.325206,261.87089)"
     fill="#5E5C7F">
    <path
       d="m 3.72,16.38 c 0,-0.7 -0.1,-2.6 -0.08,-3 0,-0.06 0.04,-0.14 0.06,-0.14 0.04,0 0.12,0.04 0.14,0.06 0.64,0.84 3.64,6.66 4,6.68 0.1,0.02 0.2,0.02 0.3,0.02 0.68,-0.04 1.28,0 1.96,0 0.7,0 0.24,-0.68 0.12,-0.86 C 10.04,18.88 7.66,14.62 7.52,14.36 7.12,13.68 6.78,12.94 6.38,12.28 6.34,12.2 6.3,12.08 6.32,12 6.36,11.76 6.42,11.54 6.52,11.32 7,10.38 7.5,9.42 8.08,8.52 8.72,7.5 9.08,6.86 9.6,5.94 9.72,5.72 9.8,5.48 9.88,5.22 9.9,5.12 9.82,5.02 9.7,5.02 9.32,5 7.94,5.02 7.5,5.02 7.3,5.02 7.1,5.06 7,5.24 c -0.26,0.5 -2.94,5.4 -3.2,5.84 -0.02,0.04 -0.08,0.06 -0.14,0.06 0,0 -0.04,-0.06 -0.04,-0.1 C 3.6,9.92 3.8,6.26 3.76,5.52 3.74,5.08 3.66,5.04 3.22,5.02 2.74,5 2.08,5 1.6,5 1.16,5 1.12,5.24 1.06,5.56 1.04,5.62 1.04,7.5 1.04,8.34 c 0,1.22 -0.1,8.86 0.04,11.28 0,0.24 0.06,0.38 0.26,0.38 0.54,-0.04 1.34,0 1.88,0 0.38,0 0.44,-0.04 0.44,-0.68 0,-0.86 0.08,-1.64 0.08,-2.7 0,-0.08 -0.02,-0.16 -0.02,-0.24 z M 14.726,15.9 h -0.02 c 0,0.5 -0.02,1.02 0,1.54 0.02,0.64 0.06,1.28 0.1,1.92 0,0.22 0.06,0.28 0.26,0.32 0.42,0.1 0.82,0.12 1.24,0.12 1.08,-0.04 2.16,0.04 3.24,0 0.44,-0.02 0.64,0.02 1.08,-0.06 0.4,-0.08 0.54,-0.3 0.54,-0.9 -0.04,-0.38 -0.02,-0.54 -0.02,-1 0,-0.66 -0.46,-0.88 -0.86,-0.86 -0.28,0.02 -1.62,-0.02 -2.16,-0.02 -0.9,0.02 -0.76,0.14 -0.76,-0.8 0,-0.76 0.02,-1.74 0.02,-2.52 0,-0.42 0.04,-0.56 0.44,-0.56 h 2.5 c 0.4,0.06 0.68,-0.22 0.68,-0.64 0,-0.42 0.04,-0.44 0.04,-0.86 l -0.06,-0.6 c -0.04,-0.34 -0.16,-0.46 -0.5,-0.46 -0.22,0 -0.44,0.02 -0.66,0.04 -0.86,0.06 -1.26,-0.06 -2.1,0 -0.28,0 -0.32,-0.04 -0.34,-0.3 -0.08,-0.78 0,-1.64 0.08,-2.42 0.02,-0.32 0.1,-0.38 0.4,-0.4 l 2.82,-0.02 c 0.38,-0.04 0.5,-0.02 0.48,-0.4 -0.04,-0.58 0.02,-1.18 -0.04,-1.76 -0.04,-0.32 -0.14,-0.38 -0.5,-0.38 -0.6,0.02 -0.74,0.02 -1.34,0.06 -0.6,0.02 -3,0.02 -3.58,0.02 -0.84,0 -0.9,-0.06 -0.92,0.96 -0.04,0.8 -0.02,1.62 -0.02,2.44 0,1.4 -0.08,6.42 -0.04,7.54 z m 10.686,0 h -0.02 c 0,0.5 -0.02,1.02 0,1.54 0.02,0.64 0.06,1.28 0.1,1.92 0,0.22 0.06,0.28 0.26,0.32 0.42,0.1 0.82,0.12 1.24,0.12 1.08,-0.04 2.16,0.04 3.24,0 0.44,-0.02 0.64,0.02 1.08,-0.06 0.4,-0.08 0.54,-0.3 0.54,-0.9 -0.04,-0.38 -0.02,-0.54 -0.02,-1 0,-0.66 -0.46,-0.88 -0.86,-0.86 -0.28,0.02 -1.62,-0.02 -2.16,-0.02 -0.9,0.02 -0.76,0.14 -0.76,-0.8 0,-0.76 0.02,-1.74 0.02,-2.52 0,-0.42 0.04,-0.56 0.44,-0.56 h 2.5 c 0.4,0.06 0.68,-0.22 0.68,-0.64 0,-0.42 0.04,-0.44 0.04,-0.86 l -0.06,-0.6 c -0.04,-0.34 -0.16,-0.46 -0.5,-0.46 -0.22,0 -0.44,0.02 -0.66,0.04 -0.86,0.06 -1.26,-0.06 -2.1,0 -0.28,0 -0.32,-0.04 -0.34,-0.3 -0.08,-0.78 0,-1.64 0.08,-2.42 0.02,-0.32 0.1,-0.38 0.4,-0.4 l 2.82,-0.02 c 0.38,-0.04 0.5,-0.02 0.48,-0.4 -0.04,-0.58 0.02,-1.18 -0.04,-1.76 -0.04,-0.32 -0.14,-0.38 -0.5,-0.38 -0.6,0.02 -0.74,0.02 -1.34,0.06 -0.6,0.02 -3,0.02 -3.58,0.02 -0.84,0 -0.9,-0.06 -0.92,0.96 -0.04,0.8 -0.02,1.62 -0.02,2.44 0,1.4 -0.08,6.42 -0.04,7.54 z M 36.098,7.62 c 0.02,1.18 0.02,11.2 0.02,12.02 0,0.3 0.04,0.36 0.34,0.36 0.68,0 0.68,0.02 1.36,0 0.14,0 0.38,0 0.5,-0.06 0.14,-0.06 0.06,-4.78 0.06,-5.04 0,-0.28 0.56,-0.22 0.72,-0.22 3.34,0 4.26,-2.4 4.26,-4.44 0,-1.84 -0.36,-5.24 -4.52,-5.24 -0.72,0 -1.46,0.02 -2.16,0.02 -0.16,0 -0.36,-0.02 -0.5,0.08 -0.16,0.12 -0.1,1.9 -0.08,2.52 z m 2.3,4.12 c 0,-0.44 -0.02,-3.06 0,-3.86 0,-0.12 -0.02,-0.26 0,-0.4 0.06,-0.22 0.32,-0.22 0.52,-0.2 1.16,0.08 1.82,1.1 1.92,2.18 0.08,0.78 -0.02,1.94 -0.58,2.56 -0.4,0.42 -0.92,0.68 -1.6,0.68 -0.14,0 -0.28,-0.16 -0.28,-0.3 0,-0.22 0,-0.44 0.02,-0.66 z m 19.172,3.1 c -0.06,-2.28 -0.04,-4.7 -0.02,-6.96 0,-0.7 -0.04,-1.46 -0.04,-2.16 0,-0.76 -0.3,-0.72 -0.7,-0.74 -0.58,-0.02 -0.84,-0.02 -1.42,-0.02 -0.38,-0.02 -0.54,0.08 -0.54,0.46 0,1.96 -0.06,7.5 -0.04,8.3 0.02,0.8 0.1,4.44 0.06,5.24 -0.02,0.28 0,0.56 0.02,0.84 0.02,0.1 0.08,0.2 0.24,0.2 0.66,-0.04 1.28,-0.04 1.94,-0.06 0.24,-0.02 0.44,-0.08 0.54,-0.34 0.02,-0.14 -0.04,-3.8 -0.04,-4.76 z m 6.806,2.98 c 0.02,0.62 0.02,1.24 0.04,1.86 0,0.28 0.02,0.32 0.3,0.32 h 1.8 c 0.38,0 0.3,-0.64 0.28,-0.98 l 0.06,-11.2 c 0,-0.3 0.1,-0.4 0.5,-0.4 h 1.76 c 0.42,0 0.32,-0.72 0.32,-1.22 0,-0.44 0.16,-1.2 -0.32,-1.2 -0.34,0 -3.6,0 -4.94,0.02 -0.66,0 -1.2,-0.02 -1.86,-0.02 -0.5,0 -0.48,0.4 -0.48,1.28 0,0.56 -0.02,1.12 0.46,1.12 0.28,0 1.42,0 1.74,0.02 0.2,0 0.34,0.06 0.38,0.28 0,0.06 0.02,0.12 0.02,0.18 0,1.44 -0.1,8.14 -0.06,9.94 z M 84.988,4.9 c -0.38,0.02 -0.76,0.08 -1.14,0.2 -0.82,0.28 -1.56,0.84 -2.06,1.56 -0.44,0.66 -0.62,1.44 -0.68,2.22 -0.04,0.6 0.02,1.22 0.3,1.76 0.3,0.58 0.82,1.08 1.26,1.56 0.4,0.42 0.8,0.84 1.24,1.22 0.4,0.38 0.86,0.68 1.26,1.08 0.58,0.58 0.8,1.9 0.38,2.62 -0.5,0.8 -1.68,0.92 -2.46,0.66 -0.4,-0.14 -0.76,-0.44 -1.1,-0.68 -0.2,-0.14 -0.44,-0.2 -0.58,0.04 -0.08,0.12 -0.12,0.26 -0.16,0.38 -0.14,0.5 -0.32,0.96 -0.34,1.5 -0.02,0.62 1.16,0.8 1.6,0.9 1.96,0.46 4.32,0.1 5.34,-1.84 0.2,-0.4 0.34,-0.82 0.42,-1.26 0.02,-0.16 0.04,-0.3 0.04,-0.46 0.08,-1.28 -0.44,-2.36 -1.22,-3.32 -0.84,-1.04 -1.9,-1.76 -2.88,-2.66 -0.6,-0.56 -0.82,-1.44 -0.64,-2.24 0.18,-0.86 1.16,-1.08 1.9,-0.86 0.22,0.06 0.4,0.16 0.6,0.28 0.12,0.06 0.24,0.14 0.4,0.14 0.28,0.02 0.32,-0.2 0.38,-0.42 0.14,-0.5 0.38,-0.9 0.48,-1.38 0.1,-0.54 -0.34,-0.64 -0.78,-0.78 -0.52,-0.14 -1.02,-0.24 -1.56,-0.22 z m 10.306,9.94 c -0.06,-2.28 -0.04,-4.7 -0.02,-6.96 0,-0.7 -0.04,-1.46 -0.04,-2.16 0,-0.76 -0.3,-0.72 -0.7,-0.74 -0.58,-0.02 -0.84,-0.02 -1.42,-0.02 -0.38,-0.02 -0.54,0.08 -0.54,0.46 0,1.96 -0.06,7.5 -0.04,8.3 0.02,0.8 0.1,4.44 0.06,5.24 -0.02,0.28 0,0.56 0.02,0.84 0.02,0.1 0.08,0.2 0.24,0.2 0.66,-0.04 1.28,-0.04 1.94,-0.06 0.24,-0.02 0.44,-0.08 0.54,-0.34 0.02,-0.14 -0.04,-3.8 -0.04,-4.76 z m 7.166,-9.82 c -0.2,0 -0.4,0.02 -0.6,0.02 -0.3,0 -0.66,-0.06 -0.72,0.34 -0.2,1.7 -0.38,3.58 -0.58,5.28 -0.34,2.8 -0.66,5.68 -0.98,8.48 -0.04,0.38 -0.08,0.74 0.34,0.82 0.64,0.04 1.12,0.04 1.66,0.02 0.2,0.02 0.42,0.04 0.48,-0.2 0.04,-0.1 0.04,-0.2 0.04,-0.3 0.04,-0.46 0.64,-6.22 0.88,-6.22 0.38,0 1.38,4.68 1.86,6.4 0.06,0.24 0.18,0.34 0.42,0.32 0.5,-0.04 0.98,0 1.48,0 0.5,0 0.4,-0.32 0.5,-0.74 0.12,-0.46 1.28,-6 1.56,-6 0.32,0 0.98,6.42 1.04,6.56 0.12,0.28 0.46,0.16 0.7,0.16 0.36,0 0.7,0.04 1.16,0 0.34,-0.04 0.68,0.08 0.7,-0.36 0,-0.1 -0.04,-0.2 -0.06,-0.3 -0.08,-0.5 -0.18,-1.1 -0.28,-1.6 -0.14,-1.04 -0.34,-2.06 -0.48,-3.1 -0.2,-1.64 -0.4,-3.28 -0.58,-4.92 C 110.86,8.28 110.66,6.7 110.54,5.3 110.5,4.84 109.98,5 109.66,5 h -1.38 c -0.22,0 -0.32,0.42 -0.36,0.64 -0.12,0.56 -1.5,7.78 -1.96,7.78 -0.46,0 -1.94,-6.6 -2.2,-8.04 -0.06,-0.32 -0.28,-0.42 -0.58,-0.42 z m 14.186,2.6 c 0.02,1.18 0.02,11.2 0.02,12.02 0,0.3 0.04,0.36 0.34,0.36 0.68,0 0.68,0.02 1.36,0 0.14,0 0.38,0 0.5,-0.06 0.14,-0.06 0.06,-4.78 0.06,-5.04 0,-0.28 0.56,-0.22 0.72,-0.22 3.34,0 4.26,-2.4 4.26,-4.44 0,-1.84 -0.36,-5.24 -4.52,-5.24 -0.72,0 -1.46,0.02 -2.16,0.02 -0.16,0 -0.36,-0.02 -0.5,0.08 -0.16,0.12 -0.1,1.9 -0.08,2.52 z m 2.3,4.12 c 0,-0.44 -0.02,-3.06 0,-3.86 0,-0.12 -0.02,-0.26 0,-0.4 0.06,-0.22 0.32,-0.22 0.52,-0.2 1.16,0.08 1.82,1.1 1.92,2.18 0.08,0.78 -0.02,1.94 -0.58,2.56 -0.4,0.42 -0.92,0.68 -1.6,0.68 -0.14,0 -0.28,-0.16 -0.28,-0.3 0,-0.22 0,-0.44 0.02,-0.66 z m 9.186,-4.78 c -0.02,1.24 0.1,10.3 0.08,10.96 0,0.62 0,1.24 0.02,1.86 0,0.1 0.06,0.2 0.16,0.2 1.4,0.06 2.78,-0.06 4.18,-0.04 0.46,0.02 0.92,0 1.36,0 0.44,-0.02 0.48,-0.2 0.46,-0.56 -0.02,-0.56 -0.02,-1.06 -0.02,-1.6 -0.02,-0.28 -0.18,-0.38 -0.42,-0.38 -0.82,0.02 -1.64,-0.02 -2.46,0.02 -0.14,0.02 -0.28,0.02 -0.42,0.02 -0.24,-0.02 -0.3,-0.08 -0.32,-0.34 v -0.3 c -0.06,-1.66 0.06,-3.38 0.06,-5.04 -0.02,-1.4 0,-2.66 -0.02,-3.9 0,-0.54 0,-1.08 -0.02,-1.6 -0.02,-0.32 0,-0.66 -0.08,-0.98 -0.04,-0.12 -0.1,-0.28 -0.24,-0.28 h -1.88 c -0.32,0 -0.42,0.22 -0.44,0.54 z m 10.506,8.94 h -0.02 c 0,0.5 -0.02,1.02 0,1.54 0.02,0.64 0.06,1.28 0.1,1.92 0,0.22 0.06,0.28 0.26,0.32 0.42,0.1 0.82,0.12 1.24,0.12 1.08,-0.04 2.16,0.04 3.24,0 0.44,-0.02 0.64,0.02 1.08,-0.06 0.4,-0.08 0.54,-0.3 0.54,-0.9 -0.04,-0.38 -0.02,-0.54 -0.02,-1 0,-0.66 -0.46,-0.88 -0.86,-0.86 -0.28,0.02 -1.62,-0.02 -2.16,-0.02 -0.9,0.02 -0.76,0.14 -0.76,-0.8 0,-0.76 0.02,-1.74 0.02,-2.52 0,-0.42 0.04,-0.56 0.44,-0.56 h 2.5 c 0.4,0.06 0.68,-0.22 0.68,-0.64 0,-0.42 0.04,-0.44 0.04,-0.86 l -0.06,-0.6 c -0.04,-0.34 -0.16,-0.46 -0.5,-0.46 -0.22,0 -0.44,0.02 -0.66,0.04 -0.86,0.06 -1.26,-0.06 -2.1,0 -0.28,0 -0.32,-0.04 -0.34,-0.3 -0.08,-0.78 0,-1.64 0.08,-2.42 0.02,-0.32 0.1,-0.38 0.4,-0.4 l 2.82,-0.02 c 0.38,-0.04 0.5,-0.02 0.48,-0.4 -0.04,-0.58 0.02,-1.18 -0.04,-1.76 -0.04,-0.32 -0.14,-0.38 -0.5,-0.38 -0.6,0.02 -0.74,0.02 -1.34,0.06 -0.6,0.02 -3,0.02 -3.58,0.02 -0.84,0 -0.9,-0.06 -0.92,0.96 -0.04,0.8 -0.02,1.62 -0.02,2.44 0,1.4 -0.08,6.42 -0.04,7.54 z"
       id="path3" />
  </g>
</svg>
