<?xml version="1.0" encoding="UTF-8" standalone="no"?>
<svg
   height="300"
   width="300"
   style="overflow:visible"
   version="1.1"
   id="svg3"
   xmlns="http://www.w3.org/2000/svg"
   xmlns:svg="http://www.w3.org/2000/svg">
  <defs
     id="SvgjsDefs1001" />
  <g
     id="layer1">
    <rect
       style="fill:#5E5C7F;fill-opacity:1;stroke-width:0.844564"
       id="rect3"
       width="300"
       height="300"
       x="0.020867435"
       y="0.20741025" />
  </g>
  <g
     id="SvgjsG1007"
     featurekey="symbolFeature-0"
     transform="matrix(2.7777778,0,0,2.7777778,11.11111,11.11111)"
     fill="#5E5C7F"
     style="overflow:visible;fill:#f9f9f9">
    <path
       d="M 87.177,5 H 12.823 C 8.52,5 5,8.52 5,12.823 V 87.176 C 5,91.479 8.52,95 12.823,95 H 87.176 C 91.48,95 95,91.479 95,87.176 V 12.823 C 95,8.52 91.48,5 87.177,5 Z M 7.608,12.823 c 0,-2.869 2.347,-5.216 5.216,-5.216 H 48.696 V 37.702 H 39.642 L 27.312,25.372 H 7.608 Z M 59.69,40.31 V 59.69 H 40.31 V 40.31 Z M 7.608,27.98 h 18.623 l 11.472,11.471 v 9.245 H 7.608 Z m 0,23.324 h 30.095 v 9.245 L 26.231,72.02 H 7.608 Z M 48.696,92.392 H 12.823 c -2.869,0 -5.216,-2.347 -5.216,-5.216 V 74.628 h 19.704 l 12.33,-12.33 h 9.054 v 30.094 z m 43.696,-5.216 c 0,2.869 -2.347,5.216 -5.216,5.216 H 51.304 V 62.298 h 9.055 l 12.33,12.33 h 19.704 v 12.548 z m 0,-15.156 H 73.769 L 62.297,60.549 v -9.245 h 30.095 z m 0,-23.324 H 62.297 V 39.451 L 73.769,27.98 h 18.623 z m 0,-23.324 H 72.689 l -12.33,12.33 H 51.304 V 7.608 h 35.873 c 2.869,0 5.216,2.347 5.216,5.216 v 12.548 z"
       id="path1"
       style="fill:#f9f9f9" />
  </g>
</svg>
